<svg width="48" height="49" viewBox="0 0 48 49" fill="none" xmlns="http://www.w3.org/2000/svg">
<g clip-path="url(#clip0_1_7952)">
<rect x="-1.52588e-05" y="0.615601" width="48" height="48" rx="24" fill="#EBF4FF"/>
<path d="M39.7384 43.0954C30.301 50.362 17.1376 50.3038 7.76472 42.9543L14.6344 39.734C14.9615 39.5802 15.2755 39.3999 15.5732 39.1947C15.6635 39.1326 15.7539 39.0677 15.84 38.9999C16.5877 38.4278 17.2031 37.7012 17.6443 36.8695C17.9778 36.2306 18.1993 35.5391 18.2993 34.8253C18.3683 34.3621 18.4032 33.8945 18.4038 33.4263C18.4038 32.6187 18.36 31.8112 18.3515 31.0023C18.3459 30.5543 18.3412 30.1067 18.3374 29.6597L18.6198 29.8008L19.3539 30.1806L19.6941 30.2385L23.6301 30.9077L28.0235 31.6559L28.1563 36.1735L28.2 37.6503L28.2212 38.3674V38.414L29.9294 39.1086L39.7384 43.0954Z" fill="#E18477"/>
<path d="M28.2151 38.2402C27.7298 38.3237 27.2306 38.2464 26.7934 38.02L18.3694 31.1292C18.3595 30.8101 18.3511 31.1447 18.3468 30.8256C18.3412 30.3786 18.3365 29.931 18.3327 29.483L18.6151 29.6242L19.3492 30.004L19.6894 30.0619L23.6254 30.731L28.0188 31.4793L28.1515 35.9969L28.1953 37.4736L28.2165 38.1908V38.2374L28.2151 38.2402Z" fill="#A76962"/>
<path d="M34.5148 15.3499C36.9368 16.7219 38.8444 18.8476 39.9472 21.4035C39.0098 21.4795 38.0855 21.672 37.1957 21.9767H37.1872C36.9557 22.0558 36.7261 22.1428 36.4983 22.2379L36.3571 22.2986L36.1327 22.3974C36.0578 22.4299 35.983 22.4652 35.9096 22.5019C35.8362 22.5386 35.7684 22.5739 35.688 22.612C35.6075 22.6501 35.5468 22.6868 35.4691 22.7264C35.3915 22.7659 35.3407 22.7955 35.2771 22.8322C35.1247 22.9169 34.975 23.0059 34.8282 23.0977C34.7698 23.1334 34.712 23.1701 34.6545 23.2078C34.0884 23.5742 33.5568 23.9915 33.0663 24.4544C32.4465 25.0402 31.8677 25.7137 31.231 26.3151C30.685 26.8655 30.0453 27.3143 29.3421 27.6407C27.9811 28.2266 26.407 28.5654 24.9938 29.0525L18.3585 31.3466C18.3585 31.2421 17.6075 30.4995 16.6644 29.5946C14.1825 27.2351 12.7445 23.983 12.6691 20.5593C12.4404 10.2167 24.5901 7.17577 32.8574 9.39224C34.1706 9.74585 35.4195 10.3053 36.5576 11.0497C37.3114 11.5371 38.001 12.1171 38.6103 12.7762C39.3214 13.5412 39.8924 14.4253 40.2974 15.388L40.1858 15.3682C38.3118 15.0227 36.391 15.0164 34.5148 15.3499Z" fill="url(#paint0_linear_1_7952)"/>
<path d="M39.9472 21.4037C39.0097 21.4796 38.0854 21.6722 37.1956 21.9769H37.1872C36.9529 22.0512 36.7229 22.1384 36.4982 22.238L36.357 22.2988L36.1298 22.4004C36.0549 22.4343 35.9815 22.4682 35.9067 22.5049C35.8319 22.5416 35.7655 22.5769 35.6851 22.615C35.6046 22.6531 35.5439 22.6898 35.4662 22.7293C35.3886 22.7689 35.3378 22.7985 35.2742 22.8352C35.1218 22.9199 34.9721 23.0089 34.8253 23.1006L34.6516 23.2108C34.0855 23.5772 33.5539 23.9945 33.0634 24.4573C32.4436 25.0432 31.8648 25.7166 31.2281 26.318C31.022 26.4028 30.8173 26.4917 30.6126 26.5806C30.638 26.5693 30.4502 24.1806 30.4559 23.9392C30.4795 23.0169 30.5848 22.0985 30.7707 21.1948C31.1293 19.4569 30.9006 17.8404 31.2465 16.0588C31.3195 15.6611 31.4138 15.2676 31.5288 14.8799C32.1189 14.4395 32.9406 14.3039 33.6563 14.2009C35.3716 13.9538 37.1363 14.1882 38.7867 14.7077C39.0596 14.7941 39.3278 14.8949 39.59 15.0098C39.7142 15.0649 39.8356 15.1242 39.9556 15.1877C40.0615 15.2674 40.1761 15.3347 40.2973 15.3882C38.3851 15.0354 36.4257 15.0225 34.5091 15.35C36.9332 16.7211 38.8429 18.8469 39.9472 21.4037Z" fill="url(#paint1_linear_1_7952)"/>
<ellipse cx="16.9483" cy="25.7052" rx="2.4" ry="2.4" fill="#E18477"/>
<ellipse cx="17.7085" cy="25.705" rx="2.14871" ry="2.14871" fill="#A76962"/>
<path d="M17.7416 23.4406L18.36 31.4877L27.7398 36.9682C29.0863 37.4704 30.5942 36.868 31.224 35.5762C32.5736 32.8119 34.7393 28.4482 34.4541 26.8232C34.0306 24.4232 32.9012 23.5762 32.9012 23.5762C33.0583 22.635 33.2146 21.6966 33.3699 20.7611C33.5478 19.7009 33.7736 18.594 33.511 17.5282C33.2103 16.307 32.287 15.7846 31.5275 14.8712C29.5285 17.4463 26.2419 18.9018 23.3718 20.3771C21.8894 21.1564 17.7416 23.4406 17.7416 23.4406Z" fill="#E18477"/>
<path d="M22.2658 21.7761C23.5731 21.5082 24.9174 21.4723 26.2371 21.6703" stroke="#00214E" stroke-width="0.198265"/>
<path d="M30.603 21.7917C31.41 21.6053 32.2414 21.5476 33.0665 21.6209" stroke="#00214E" stroke-width="0.198265"/>
<path d="M27.3516 27.2242C27.1409 27.3321 27.0403 27.5775 27.1146 27.8022C27.1889 28.027 27.416 28.164 27.6495 28.125" stroke="#00214E" stroke-width="0.198265"/>
<path d="M29.8994 25.7643C29.8994 25.7643 29.9403 26.5619 30.1281 26.936C30.2086 27.097 30.3342 27.2325 30.4104 27.3935C30.7224 28.0048 30.2184 28.1346 29.7314 28.1346" stroke="#00214E" stroke-width="0.198265"/>
<path d="M39.7384 43.0954C30.301 50.362 17.1376 50.3038 7.76472 42.9543L14.6344 39.734C14.9615 39.5802 15.2755 39.3999 15.5732 39.1947C15.6635 39.1326 15.7539 39.0677 15.84 38.9999C16.5877 38.4278 17.2031 37.7012 17.6443 36.8696C17.9778 36.2306 18.1993 35.5391 18.2993 34.8253C18.399 34.9219 18.5036 35.0133 18.6127 35.0992C19.4783 35.7393 20.4178 36.273 21.4108 36.6888C21.893 36.89 22.386 37.0639 22.8875 37.2098C24.3987 37.6504 25.9765 37.8173 27.5464 37.7025C27.7638 37.6856 27.9826 37.6644 28.2 37.6488L28.2212 38.366V38.4126L29.9294 39.1072L39.7384 43.0954Z" fill="#00214E"/>
<circle cx="25.2199" cy="23.8937" r="2.68235" stroke="white" stroke-width="0.198265"/>
<ellipse cx="32.7218" cy="23.4703" rx="2.68235" ry="2.68235" stroke="white" stroke-width="0.198265"/>
<path d="M27.9018 23.8939L30.0392 23.7103" stroke="white" stroke-width="0.198265"/>
<path d="M25.0193 29.75C25.0586 29.6882 25.1218 29.6455 25.1938 29.6321C25.2658 29.6187 25.3402 29.6359 25.399 29.6794C25.6913 29.8856 26.2292 30.3232 26.9915 30.4743C28.0306 30.6818 28.9313 30.2653 29.1473 30.5336C29.2687 30.6846 29.1205 30.8696 28.8367 31.1053C28.2359 31.554 27.4797 31.7418 26.7388 31.6263C25.7393 31.4385 24.9882 30.2808 24.9882 29.87C24.9885 29.8281 24.9991 29.7868 25.0193 29.75Z" fill="white"/>
<ellipse cx="24.5879" cy="23.8688" rx="0.461647" ry="1.12094" transform="rotate(-85.77 24.5879 23.8688)" fill="#00214E"/>
<ellipse cx="31.86" cy="23.6399" rx="1.12094" ry="0.461647" transform="rotate(-8.85999 31.86 23.6399)" fill="#00214E"/>
</g>
<defs>
<linearGradient id="paint0_linear_1_7952" x1="28.649" y1="33.7518" x2="45.3336" y2="13.0617" gradientUnits="userSpaceOnUse">
<stop stop-color="#16243F"/>
<stop offset="1" stop-color="#6878B1"/>
</linearGradient>
<linearGradient id="paint1_linear_1_7952" x1="30.4573" y1="26.5803" x2="40.2973" y2="26.5803" gradientUnits="userSpaceOnUse">
<stop stop-color="#16243F"/>
<stop offset="1" stop-color="#6878B1"/>
</linearGradient>
<clipPath id="clip0_1_7952">
<rect x="-1.52588e-05" y="0.615601" width="48" height="48" rx="24" fill="white"/>
</clipPath>
</defs>
</svg>
